Coordinates
version=1
nRows=6
nColumns=36
inDegrees=yes

Units are S.I. units (second, meters, Newtons, ...)
If the header above contains a line with 'inDegrees', this indicates whether rotational values are in degrees (yes) or radians (no).

endheader
time	pelvis_tilt	pelvis_list	pelvis_rotation	pelvis_tx	pelvis_ty	pelvis_tz	hip_flexion_r	hip_adduction_r	hip_rotation_r	knee_angle_r	knee_angle_r_beta	ankle_angle_r	subtalar_angle_r	mtp_angle_r	hip_flexion_l	hip_adduction_l	hip_rotation_l	knee_angle_l	knee_angle_l_beta	ankle_angle_l	subtalar_angle_l	mtp_angle_l	lumbar_extension	lumbar_bending	lumbar_rotation	arm_flex_r	arm_add_r	arm_rot_r	elbow_flex_r	pro_sup_r	arm_flex_l	arm_add_l	arm_rot_l	elbow_flex_l	pro_sup_l
      0.00000000	      0.30179354	      0.53191404	      2.85891933	     -0.16709574	      0.90898789	     -0.29688861	     24.20777340	      0.72142980	     -6.85569913	      2.80941086	      0.04903347	      7.84554416	      1.77394473	     -5.67597950	    -17.65197874	      2.60128879	      3.21676146	      6.11665695	      0.10675580	     18.87660609	      7.32889427	     -5.67597950	     -7.55404093	      1.31363038	    -10.52297707	    -20.25557334	     -5.20197126	    -20.96005000	     28.05873210	    100.41905888	      9.83497021	    -10.47147771	    -11.60248318	     55.49029363	     97.01749650
      0.01000000	      0.47957270	     -0.05468929	      3.09067963	     -0.15215254	      0.90787159	     -0.29629173	     23.84642337	      1.36446546	     -7.33879107	      4.12029390	      0.07191269	      7.14628117	      0.32272954	     -5.69837356	    -18.49697634	      1.80084694	      2.77616444	      6.68091852	      0.11660403	     18.44732973	      7.12903196	     -5.69837356	     -7.40205687	      2.01681805	    -10.54114675	    -20.40920551	     -5.31782794	    -21.09819428	     27.29368230	    100.44257739	      9.59124012	    -10.12119348	    -11.59480707	     55.47575623	     97.09930774
      0.02000000	      0.31082670	     -0.64484673	      3.25924266	     -0.13732285	      0.90645161	     -0.29540561	     23.63168356	      2.14501608	     -6.56445846	      4.83504910	      0.08438753	      4.70337260	     -3.34566086	     -5.78354223	    -18.88779139	      1.01192808	      2.40931480	      7.39173011	      0.12901003	     18.11397261	      7.14694068	     -5.78354223	     -6.82144548	      2.66638884	    -10.75198579	    -20.31698665	     -5.49391277	    -21.04510167	     26.11577541	    100.62500296	      9.04929536	     -9.81642500	    -11.96936729	     55.52773789	     97.37614099
      0.03000000	      0.32585464	     -1.33526594	      3.47644289	     -0.12215522	      0.90543873	     -0.29472470	     23.36132579	      2.90581912	     -6.94662694	      5.85849917	      0.10225010	      3.60407762	     -4.28232271	     -5.80520577	    -19.46552173	      0.10016098	      2.02257203	      8.09774255	      0.14133227	     17.47618012	      6.91261570	     -5.80520577	     -6.42349084	      3.49386444	    -10.83177660	    -20.49238584	     -5.64099489	    -21.10352459	     25.57163579	    100.62414259	      8.60753628	     -9.41278875	    -12.00644328	     55.45303276	     97.43298954
      0.04000000	      0.19514482	     -2.05491189	      3.62053271	     -0.10705210	      0.90465790	     -0.29372430	     22.96892544	      3.84784408	     -6.21635346	      6.15057428	      0.10734777	      0.48619340	     -7.42586075	     -5.89645323	    -19.76660690	     -0.82484218	      1.74538813	      9.01059882	      0.15726462	     16.77080928	      6.67253411	     -5.89645323	     -5.84122903	      4.29208101	    -11.06723545	    -20.27677921	     -5.87707508	    -20.91275026	     24.31640059	    100.64172636	      7.96450194	     -8.99021633	    -12.53424305	     55.37336080	     97.64882957
      0.05000000	      0.22886199	     -2.86098734	      3.76952230	     -0.09166649	      0.90440988	     -0.29286043	     22.54247174	      4.75268750	     -6.62230756	      6.80383889	      0.11874939	     -0.80662446	     -7.67357492	     -5.91487645	    -20.12649614	     -1.84823017	      1.34273062	     10.11567592	      0.17655185	     15.72724305	      6.30947177	     -5.91487645	     -5.42768475	      5.25531599	    -11.10414499	    -20.32879279	     -6.02809207	    -20.96582997	     23.77856769	    100.59259061	      7.40550295	     -8.52391173	    -12.58104835	     55.07918499	     97.66115434
